<?xml version="1.0" encoding="UTF-8" standalone="no"?>
<!DOCTYPE svg PUBLIC "-//W3C//DTD SVG 1.1//EN" "http://www.w3.org/Graphics/SVG/1.1/DTD/svg11.dtd">
<svg width="225.00" height="225.00" viewBox="0.00 0.00 300.00 300.00" xmlns="http://www.w3.org/2000/svg" xmlns:xlink="http://www.w3.org/1999/xlink">
<g stroke-linecap="round" transform="translate(3.00, 10.00)" id="Calque_2">
<path d="M219.68,41.00 L259.89,92.67 L124.83,238.86 L33.12,227.39 L44.47,135.75 L219.68,41.00 Z" fill="none" stroke="rgb(0, 0, 0)" stroke-width="17.41" stroke-opacity="1.00" stroke-linejoin="miter"/>
<path d="M233.96,112.82" fill="none" stroke="rgb(0, 0, 0)" stroke-width="17.41" stroke-opacity="1.00" stroke-linejoin="miter"/>
<path d="M193.87,61.08 L234.07,112.79" fill="none" stroke="rgb(0, 0, 0)" stroke-width="17.41" stroke-opacity="1.00" stroke-linejoin="miter"/>
<path d="M79.07,233.17 C79.18,230.52 79.44,224.06 79.59,220.25 C79.87,213.43 79.41,206.31 78.06,202.36 C76.70,198.57 71.98,192.49 68.65,190.23 C65.17,187.94 58.34,185.68 51.69,184.23 C47.93,183.42 39.03,181.44 38.89,181.48 C38.03,181.84 46.01,186.54 47.59,187.48 C51.47,189.78 60.02,194.89 63.15,197.26 C66.39,199.74 71.94,205.55 73.73,208.87 C74.66,210.67 75.63,214.50 75.63,216.34 C75.59,219.10 73.64,226.58 72.70,227.98 C71.56,229.60 69.20,231.13 67.65,231.06 C66.00,230.92 63.63,228.88 62.34,226.68 C60.89,224.10 57.65,207.32 55.92,203.87 C55.02,202.21 52.37,199.41 50.66,198.47 C47.13,196.62 40.08,197.61 39.88,198.18 C39.65,199.23 45.65,202.37 49.16,203.78 C51.61,204.76 63.86,209.30 66.61,210.79 C67.80,211.46 69.44,212.77 69.58,213.26 C69.69,213.97 68.35,214.96 66.64,215.29 C63.96,215.77 45.48,216.02 43.92,216.04" fill="none" stroke="rgb(0, 0, 0)" stroke-width="17.41" stroke-opacity="1.00" stroke-linejoin="miter"/>
</g>
</svg>
